<?xml version="1.0" encoding="utf-8"?>
<!-- Generator: Adobe Illustrator 25.0.0, SVG Export Plug-In . SVG Version: 6.00 Build 0)  -->
<svg version="1.1" id="Capa_1" xmlns="http://www.w3.org/2000/svg" xmlns:xlink="http://www.w3.org/1999/xlink" x="0px" y="0px"
	 viewBox="0 0 96 96" style="enable-background:new 0 0 96 96;" xml:space="preserve">
<style type="text/css">
	.st0{fill:#FFFFFF;}
</style>
<path class="st0" d="M24,78c0,5,4,9,9,9h30c5,0,9-4,9-9l6-48H18L24,78z M57,39h6v39h-6V39z M45,39h6v39h-6V39z M33,39h6v39h-6V39z
	 M76.5,18H57c0,0-1.3-6-3-6H42c-1.7,0-3,6-3,6H19.5C17,18,15,20,15,22.5s0,4.5,0,4.5h66c0,0,0-2,0-4.5S79,18,76.5,18z"/>
</svg>
