<?xml version="1.0" encoding="utf-8"?>
<!-- Generator: Adobe Illustrator 25.0.0, SVG Export Plug-In . SVG Version: 6.00 Build 0)  -->
<svg version="1.1" id="Layer_1" xmlns="http://www.w3.org/2000/svg" xmlns:xlink="http://www.w3.org/1999/xlink" x="0px" y="0px"
	 viewBox="0 0 64 64" style="enable-background:new 0 0 64 64;" xml:space="preserve">
<style type="text/css">
	.st0{fill:#EFEFEF;}
</style>
<g>
	<path class="st0" d="M55.7,13.6l-4.4-4.4c-0.5-0.5-1-0.7-1.6-0.7c-0.6,0-1.2,0.2-1.6,0.7l-3.5,3.5l7.6,7.6l3.5-3.5
		C56.6,16,56.6,14.5,55.7,13.6z"/>
	<polygon class="st0" points="21.9,35.4 29.6,43 50.6,22 43,14.4 	"/>
	<polygon class="st0" points="20.3,37 18.6,46.3 27.9,44.7 	"/>
	<path class="st0" d="M41.4,50.4H12.6V21.6h20.3l5-5H10.8c-1.8,0-3.2,1.5-3.2,3.2v32.3c0,1.8,1.5,3.2,3.2,3.2h32.3
		c1.8,0,3.2-1.5,3.2-3.2V29l-5,5V50.4z"/>
</g>
</svg>
