<?xml version="1.0" encoding="utf-8"?>
<!-- Generator: Adobe Illustrator 25.0.0, SVG Export Plug-In . SVG Version: 6.00 Build 0)  -->
<svg version="1.1" id="Layer_1" xmlns="http://www.w3.org/2000/svg" xmlns:xlink="http://www.w3.org/1999/xlink" x="0px" y="0px"
	 viewBox="0 0 512 512" style="enable-background:new 0 0 512 512;" xml:space="preserve">
<style type="text/css">
	.st0{fill:#F9F9F9;}
	.st1{fill:#08FF48;}
</style>
<g>
	<g>
		<path class="st0" d="M125.9,406.2c0,3.2,2.6,5.7,5.7,5.7h168.1v-11.5H131.6C128.5,400.5,125.9,403.1,125.9,406.2z"/>
		<path class="st0" d="M268.8,353.9H131.6c-3.2,0-5.7,2.6-5.7,5.7c0,3.2,2.6,5.7,5.7,5.7h168.1v-4.1h-10.9
			C281.3,361.3,274.3,358.6,268.8,353.9z"/>
		<rect x="296.1" y="55" class="st0" width="33.6" height="77.7"/>
		<path class="st0" d="M86.5,444V275.3c0-6.3,5.2-11.4,11.4-11.4h213.9l60.5-60.5c5.9-5.8,13.6-9,21.8-9c8.2,0,16,3.2,21.8,9
			l41.9,41.9V128.2c0-4.4-0.8-8.8-2.6-13.1c-1.8-4.3-4.3-8-7.5-11.1l-77-77c-3.1-3.1-6.8-5.7-11.1-7.4c-4.3-1.8-8.8-2.6-13.1-2.6
			H34.3c-8.8,0-17.6,3.4-24.3,10.1C3.3,33.6,0,42.4,0,51.2v389.2c0,8.8,3.3,17.6,10.1,24.3c6.7,6.7,15.5,10.1,24.3,10.1h265.4v-19.3
			H98C91.7,455.4,86.5,450.3,86.5,444z M111.9,48.9c0-2.9,1.1-5.9,3.4-8.1c2.2-2.2,5.2-3.4,8.1-3.4h211.2c2.9,0,5.9,1.1,8.1,3.4
			c2.2,2.2,3.3,5.2,3.3,8.1v89.9c0,2.9-1.1,5.9-3.3,8.1s-5.2,3.4-8.1,3.4H123.4c-2.9,0-5.8-1.1-8.1-3.4c-2.2-2.2-3.4-5.2-3.4-8.1
			V48.9z M34.3,455.4c-8.3,0-15.1-6.7-15.1-15.1c0-8.3,6.8-15.1,15.1-15.1c8.3,0,15.1,6.7,15.1,15.1
			C49.4,448.7,42.7,455.4,34.3,455.4z"/>
		<path class="st0" d="M125.9,313.1c0,3.2,2.6,5.7,5.7,5.7h128.7c1.5-3.7,3.8-7.2,6.7-10.1l1.3-1.3H131.6
			C128.5,307.4,125.9,310,125.9,313.1z"/>
		<path class="st1" d="M508.3,321.6L403,216.3c-2.3-2.3-5.4-3.7-8.8-3.7s-6.6,1.4-8.9,3.7L280,321.6c-3.5,3.5-4.7,8.8-2.7,13.6
			c2,4.8,6.7,7.7,11.6,7.7h29.2v139.7c0,3.2,1.2,6.4,3.7,8.8c2.4,2.4,5.6,3.7,8.8,3.7h127.2c3.2,0,6.4-1.2,8.9-3.7
			c2.4-2.4,3.7-5.6,3.7-8.8V343h29.2c4.9,0,9.6-2.9,11.6-7.7C513,330.5,511.8,325.1,508.3,321.6z"/>
	</g>
</g>
</svg>
